<mxfile host="app.diagrams.net" modified="2023-10-13T13:53:45.794Z" agent="Mozilla/5.0 (Windows NT 10.0; Win64; x64) AppleWebKit/537.36 (KHTML, like Gecko) Chrome/118.0.0.0 Safari/537.36" etag="3SH2VFH8ARtYxadY36-A" version="22.0.4" type="github">
  <diagram id="R2lEEEUBdFMjLlhIrx00" name="Page-1">
    <mxGraphModel dx="1050" dy="542" grid="1" gridSize="10" guides="1" tooltips="1" connect="1" arrows="1" fold="1" page="1" pageScale="1" pageWidth="850" pageHeight="1100" math="0" shadow="0" extFonts="Permanent Marker^https://fonts.googleapis.com/css?family=Permanent+Marker">
      <root>
        <mxCell id="0" />
        <mxCell id="1" parent="0" />
        <mxCell id="D_UX2HeST65DxHSwB_3Y-1" value="Guerra" style="swimlane;childLayout=stackLayout;horizontal=1;startSize=50;horizontalStack=0;rounded=1;fontSize=14;fontStyle=0;strokeWidth=2;resizeParent=0;resizeLast=1;shadow=0;dashed=0;align=center;arcSize=4;whiteSpace=wrap;html=1;" parent="1" vertex="1">
          <mxGeometry x="70" y="60" width="160" height="120" as="geometry" />
        </mxCell>
        <mxCell id="D_UX2HeST65DxHSwB_3Y-2" value="&lt;font style=&quot;font-size: 14px;&quot;&gt;&lt;b&gt;+id_guerra: int&lt;/b&gt;&lt;/font&gt;&lt;br&gt;+nombre&lt;br&gt;+ano_inicio&lt;br&gt;+ano_fin" style="align=left;strokeColor=none;fillColor=none;spacingLeft=4;fontSize=12;verticalAlign=top;resizable=0;rotatable=0;part=1;html=1;" parent="D_UX2HeST65DxHSwB_3Y-1" vertex="1">
          <mxGeometry y="50" width="160" height="70" as="geometry" />
        </mxCell>
        <mxCell id="D_UX2HeST65DxHSwB_3Y-3" value="Bandos" style="swimlane;childLayout=stackLayout;horizontal=1;startSize=50;horizontalStack=0;rounded=1;fontSize=14;fontStyle=0;strokeWidth=2;resizeParent=0;resizeLast=1;shadow=0;dashed=0;align=center;arcSize=4;whiteSpace=wrap;html=1;" parent="1" vertex="1">
          <mxGeometry x="480" y="70" width="160" height="120" as="geometry" />
        </mxCell>
        <mxCell id="D_UX2HeST65DxHSwB_3Y-4" value="&lt;font style=&quot;font-size: 14px;&quot;&gt;&lt;b&gt;+id_bando: int&lt;br&gt;&lt;/b&gt;&lt;/font&gt;+nombre&lt;br&gt;+ganador" style="align=left;strokeColor=none;fillColor=none;spacingLeft=4;fontSize=12;verticalAlign=top;resizable=0;rotatable=0;part=1;html=1;" parent="D_UX2HeST65DxHSwB_3Y-3" vertex="1">
          <mxGeometry y="50" width="160" height="70" as="geometry" />
        </mxCell>
        <mxCell id="cqBlWcfenatslmYMYorg-1" value="Paises" style="swimlane;childLayout=stackLayout;horizontal=1;startSize=50;horizontalStack=0;rounded=1;fontSize=14;fontStyle=0;strokeWidth=2;resizeParent=0;resizeLast=1;shadow=0;dashed=0;align=center;arcSize=4;whiteSpace=wrap;html=1;" parent="1" vertex="1">
          <mxGeometry x="480" y="400" width="160" height="120" as="geometry" />
        </mxCell>
        <mxCell id="cqBlWcfenatslmYMYorg-2" value="&lt;font style=&quot;font-size: 14px;&quot;&gt;&lt;b&gt;+id_pais: int&lt;/b&gt;&lt;/font&gt;&lt;br&gt;+nombre" style="align=left;strokeColor=none;fillColor=none;spacingLeft=4;fontSize=12;verticalAlign=top;resizable=0;rotatable=0;part=1;html=1;" parent="cqBlWcfenatslmYMYorg-1" vertex="1">
          <mxGeometry y="50" width="160" height="70" as="geometry" />
        </mxCell>
        <mxCell id="cqBlWcfenatslmYMYorg-3" value="Tiempo Independencia" style="swimlane;childLayout=stackLayout;horizontal=1;startSize=50;horizontalStack=0;rounded=1;fontSize=14;fontStyle=0;strokeWidth=2;resizeParent=0;resizeLast=1;shadow=0;dashed=0;align=center;arcSize=4;whiteSpace=wrap;html=1;" parent="1" vertex="1">
          <mxGeometry x="70" y="400" width="225" height="120" as="geometry" />
        </mxCell>
        <mxCell id="cqBlWcfenatslmYMYorg-4" value="&lt;font style=&quot;font-size: 14px;&quot;&gt;&lt;b&gt;+id_tiempo_independiencia: int&lt;/b&gt;&lt;/font&gt;&lt;br&gt;+nombre&lt;br&gt;+ano_inicio&lt;br&gt;+ano_fin" style="align=left;strokeColor=none;fillColor=none;spacingLeft=4;fontSize=12;verticalAlign=top;resizable=0;rotatable=0;part=1;html=1;" parent="cqBlWcfenatslmYMYorg-3" vertex="1">
          <mxGeometry y="50" width="225" height="70" as="geometry" />
        </mxCell>
        <mxCell id="Xajec5MU3PWTGprrkWOd-1" value="participar" style="shape=rhombus;perimeter=rhombusPerimeter;whiteSpace=wrap;html=1;align=center;" vertex="1" parent="1">
          <mxGeometry x="480" y="250" width="120" height="60" as="geometry" />
        </mxCell>
        <mxCell id="Xajec5MU3PWTGprrkWOd-2" value="combatir" style="shape=rhombus;perimeter=rhombusPerimeter;whiteSpace=wrap;html=1;align=center;direction=west;" vertex="1" parent="1">
          <mxGeometry x="310" y="90" width="120" height="60" as="geometry" />
        </mxCell>
        <mxCell id="Xajec5MU3PWTGprrkWOd-3" value="" style="edgeStyle=entityRelationEdgeStyle;fontSize=12;html=1;endArrow=ERmandOne;startArrow=ERmandOne;rounded=0;entryX=1;entryY=0;entryDx=0;entryDy=0;exitX=0;exitY=0;exitDx=0;exitDy=0;" edge="1" parent="1" source="cqBlWcfenatslmYMYorg-2" target="cqBlWcfenatslmYMYorg-4">
          <mxGeometry width="100" height="100" relative="1" as="geometry">
            <mxPoint x="210" y="330" as="sourcePoint" />
            <mxPoint x="310" y="230" as="targetPoint" />
          </mxGeometry>
        </mxCell>
        <mxCell id="Xajec5MU3PWTGprrkWOd-6" value="" style="edgeStyle=entityRelationEdgeStyle;fontSize=12;html=1;endArrow=ERoneToMany;rounded=0;exitX=0.5;exitY=0;exitDx=0;exitDy=0;entryX=0.5;entryY=1;entryDx=0;entryDy=0;" edge="1" parent="1" source="cqBlWcfenatslmYMYorg-1" target="Xajec5MU3PWTGprrkWOd-1">
          <mxGeometry width="100" height="100" relative="1" as="geometry">
            <mxPoint x="210" y="330" as="sourcePoint" />
            <mxPoint x="310" y="230" as="targetPoint" />
          </mxGeometry>
        </mxCell>
        <mxCell id="Xajec5MU3PWTGprrkWOd-7" value="" style="edgeStyle=entityRelationEdgeStyle;fontSize=12;html=1;endArrow=ERzeroToMany;endFill=1;rounded=0;exitX=0.5;exitY=1;exitDx=0;exitDy=0;entryX=0.5;entryY=0;entryDx=0;entryDy=0;" edge="1" parent="1" source="D_UX2HeST65DxHSwB_3Y-4" target="Xajec5MU3PWTGprrkWOd-1">
          <mxGeometry width="100" height="100" relative="1" as="geometry">
            <mxPoint x="210" y="330" as="sourcePoint" />
            <mxPoint x="310" y="230" as="targetPoint" />
          </mxGeometry>
        </mxCell>
        <mxCell id="Xajec5MU3PWTGprrkWOd-8" value="" style="edgeStyle=entityRelationEdgeStyle;fontSize=12;html=1;endArrow=ERoneToMany;rounded=0;exitX=0;exitY=0;exitDx=0;exitDy=0;entryX=0;entryY=0.5;entryDx=0;entryDy=0;" edge="1" parent="1" source="D_UX2HeST65DxHSwB_3Y-4" target="Xajec5MU3PWTGprrkWOd-2">
          <mxGeometry width="100" height="100" relative="1" as="geometry">
            <mxPoint x="180" y="220" as="sourcePoint" />
            <mxPoint x="350" y="90" as="targetPoint" />
          </mxGeometry>
        </mxCell>
        <mxCell id="Xajec5MU3PWTGprrkWOd-10" value="" style="edgeStyle=entityRelationEdgeStyle;fontSize=12;html=1;endArrow=ERmandOne;startArrow=ERmandOne;rounded=0;entryX=1;entryY=0.25;entryDx=0;entryDy=0;exitX=1;exitY=0.5;exitDx=0;exitDy=0;" edge="1" parent="1" source="Xajec5MU3PWTGprrkWOd-2" target="D_UX2HeST65DxHSwB_3Y-2">
          <mxGeometry width="100" height="100" relative="1" as="geometry">
            <mxPoint x="150" y="140" as="sourcePoint" />
            <mxPoint x="442" y="190" as="targetPoint" />
          </mxGeometry>
        </mxCell>
        <mxCell id="Xajec5MU3PWTGprrkWOd-11" value="ano_entrada" style="ellipse;whiteSpace=wrap;html=1;align=center;" vertex="1" parent="1">
          <mxGeometry x="330" y="260" width="100" height="40" as="geometry" />
        </mxCell>
        <mxCell id="Xajec5MU3PWTGprrkWOd-12" value="ano_salida" style="ellipse;whiteSpace=wrap;html=1;align=center;" vertex="1" parent="1">
          <mxGeometry x="640" y="260" width="100" height="40" as="geometry" />
        </mxCell>
        <mxCell id="Xajec5MU3PWTGprrkWOd-13" value="" style="endArrow=none;html=1;rounded=0;exitX=1;exitY=0.5;exitDx=0;exitDy=0;entryX=0;entryY=0.5;entryDx=0;entryDy=0;" edge="1" parent="1" source="Xajec5MU3PWTGprrkWOd-11" target="Xajec5MU3PWTGprrkWOd-1">
          <mxGeometry relative="1" as="geometry">
            <mxPoint x="180" y="280" as="sourcePoint" />
            <mxPoint x="340" y="280" as="targetPoint" />
          </mxGeometry>
        </mxCell>
        <mxCell id="Xajec5MU3PWTGprrkWOd-14" value="" style="endArrow=none;html=1;rounded=0;exitX=1;exitY=0.5;exitDx=0;exitDy=0;entryX=0;entryY=0.5;entryDx=0;entryDy=0;" edge="1" parent="1" source="Xajec5MU3PWTGprrkWOd-1" target="Xajec5MU3PWTGprrkWOd-12">
          <mxGeometry relative="1" as="geometry">
            <mxPoint x="110" y="280" as="sourcePoint" />
            <mxPoint x="160" y="290" as="targetPoint" />
          </mxGeometry>
        </mxCell>
      </root>
    </mxGraphModel>
  </diagram>
</mxfile>
